<svg version="1.2" baseProfile="tiny-ps" xmlns="http://www.w3.org/2000/svg" viewBox="0 0 37 44" width="37" height="44">
	<title>Content</title>
	<style>
		tspan { white-space:pre }
		.shp0 { fill: #a3bbc8 } 
	</style>
	<g id="Content">
		<g id="Our Phone">
			<path id="icon" fill-rule="evenodd" class="shp0" d="M13.44 38.92C13.44 36.17 15.71 33.93 18.5 33.93C21.29 33.93 23.56 36.17 23.56 38.92C23.56 41.68 21.29 43.92 18.5 43.92C15.71 43.92 13.44 41.68 13.44 38.92ZM15.41 38.92C15.41 40.6 16.8 41.97 18.5 41.97C20.2 41.97 21.58 40.6 21.58 38.92C21.58 37.24 20.2 35.88 18.5 35.88C16.8 35.88 15.41 37.24 15.41 38.92ZM26.88 27.59C26.88 24.83 29.15 22.59 31.94 22.59C34.73 22.59 37 24.83 37 27.59C37 30.34 34.73 32.58 31.94 32.58C29.15 32.58 26.88 30.34 26.88 27.59ZM28.86 27.59C28.86 29.27 30.24 30.63 31.94 30.63C33.64 30.63 35.03 29.27 35.03 27.59C35.03 25.91 33.64 24.54 31.94 24.54C30.24 24.54 28.86 25.91 28.86 27.59ZM13.44 27.59C13.44 24.83 15.71 22.59 18.5 22.59C21.29 22.59 23.56 24.83 23.56 27.59C23.56 30.34 21.29 32.58 18.5 32.58C15.71 32.58 13.44 30.34 13.44 27.59ZM15.41 27.59C15.41 29.27 16.8 30.63 18.5 30.63C20.2 30.63 21.58 29.27 21.58 27.59C21.58 25.91 20.2 24.54 18.5 24.54C16.8 24.54 15.41 25.91 15.41 27.59ZM0 27.59C0 24.83 2.27 22.59 5.06 22.59C7.85 22.59 10.12 24.83 10.12 27.59C10.12 30.34 7.85 32.58 5.06 32.58C2.27 32.58 0 30.34 0 27.59ZM1.97 27.59C1.97 29.27 3.36 30.63 5.06 30.63C6.76 30.63 8.14 29.27 8.14 27.59C8.14 25.91 6.76 24.54 5.06 24.54C3.36 24.54 1.97 25.91 1.97 27.59ZM26.88 16.25C26.88 13.5 29.15 11.25 31.94 11.25C34.73 11.25 37 13.5 37 16.25C37 19 34.73 21.24 31.94 21.24C29.15 21.24 26.88 19 26.88 16.25ZM28.86 16.25C28.86 17.93 30.24 19.29 31.94 19.29C33.64 19.29 35.03 17.93 35.03 16.25C35.03 14.57 33.64 13.2 31.94 13.2C30.24 13.2 28.86 14.57 28.86 16.25ZM13.44 16.25C13.44 13.5 15.71 11.25 18.5 11.25C21.29 11.25 23.56 13.5 23.56 16.25C23.56 19 21.29 21.24 18.5 21.24C15.71 21.24 13.44 19 13.44 16.25ZM15.41 16.25C15.41 17.93 16.8 19.29 18.5 19.29C20.2 19.29 21.58 17.93 21.58 16.25C21.58 14.57 20.2 13.2 18.5 13.2C16.8 13.2 15.41 14.57 15.41 16.25ZM0 16.25C0 13.5 2.27 11.25 5.06 11.25C7.85 11.25 10.12 13.5 10.12 16.25C10.12 19 7.85 21.24 5.06 21.24C2.27 21.24 0 19 0 16.25ZM1.97 16.25C1.97 17.93 3.36 19.29 5.06 19.29C6.76 19.29 8.14 17.93 8.14 16.25C8.14 14.57 6.76 13.2 5.06 13.2C3.36 13.2 1.97 14.57 1.97 16.25ZM26.88 4.91C26.88 2.16 29.15 -0.08 31.94 -0.08C34.73 -0.08 37 2.16 37 4.91C37 7.67 34.73 9.91 31.94 9.91C29.15 9.91 26.88 7.67 26.88 4.91ZM28.86 4.91C28.86 6.59 30.24 7.96 31.94 7.96C33.64 7.96 35.03 6.59 35.03 4.91C35.03 3.23 33.64 1.87 31.94 1.87C30.24 1.87 28.86 3.23 28.86 4.91ZM13.44 4.91C13.44 2.16 15.71 -0.08 18.5 -0.08C21.29 -0.08 23.56 2.16 23.56 4.91C23.56 7.67 21.29 9.91 18.5 9.91C15.71 9.91 13.44 7.67 13.44 4.91ZM15.41 4.91C15.41 6.59 16.8 7.96 18.5 7.96C20.2 7.96 21.58 6.59 21.58 4.91C21.58 3.23 20.2 1.87 18.5 1.87C16.8 1.87 15.41 3.23 15.41 4.91ZM0 4.91C0 2.16 2.27 -0.08 5.06 -0.08C7.85 -0.08 10.12 2.16 10.12 4.91C10.12 7.67 7.85 9.91 5.06 9.91C2.27 9.91 0 7.67 0 4.91ZM1.97 4.91C1.97 6.59 3.36 7.96 5.06 7.96C6.76 7.96 8.14 6.59 8.14 4.91C8.14 3.23 6.76 1.87 5.06 1.87C3.36 1.87 1.97 3.23 1.97 4.91Z" />
		</g>
	</g>
</svg>